<svg xmlns="http://www.w3.org/2000/svg" viewBox="0 0 24 24" fill="none" stroke="currentColor" stroke-width="1.8" stroke-linecap="round" stroke-linejoin="round"><path d="M5 3.5h14a2.5 2.5 0 0 1 2.5 2.5v8.5A2.5 2.5 0 0 1 19 17h-7.6l-4.7 3.5V17H5a2.5 2.5 0 0 1-2.5-2.5V6A2.5 2.5 0 0 1 5 3.5Z"/><path d="M8 9h.1m6.8 0h.1" stroke-width="2.3"/><path d="M8.5 12.1c1.9 1.5 4.9 1.5 6.8 0"/><path d="M15.6 13.2c0 1.15-.68 2-1.5 2s-1.5-.85-1.5-2c0-.78 1.5-2.36 1.5-2.36s1.5 1.58 1.5 2.36Z" fill="currentColor" stroke="none"/></svg>
