<svg xmlns="http://www.w3.org/2000/svg" viewBox="0 0 48 48"><defs><linearGradient id="a" x1="8" y1="5" x2="40" y2="43" gradientUnits="userSpaceOnUse"><stop stop-color="#F9C88C"/><stop offset="1" stop-color="#DE744F"/></linearGradient></defs><rect x="2" y="2" width="44" height="44" rx="15" fill="#FFF5E7"/><rect x="3.5" y="3.5" width="41" height="41" rx="13.5" fill="url(#a)" stroke="#FFF9F0" stroke-width="3"/><path d="M13.6 21.2c2.5-7.2 12.1-10.2 18.3-5.7 5.4 3.8 5.5 12.2.3 16.4-5.1 4.2-13.1 3.2-16.8-2.2-1.9-2.7-2.5-5.8-1.8-8.5Z" fill="#FFF8ED"/><path d="M16.1 20.1c2.6-2.2 5.8-3.3 9.2-3.1" fill="none" stroke="#7C4433" stroke-width="1.7" stroke-linecap="round" opacity=".55"/><path d="M20.2 24.5h.1m7.4 0h.1" stroke="#49312B" stroke-width="3.2" stroke-linecap="round"/><path d="M20.3 28.7c2.4 1.8 5.1 1.8 7.4 0" fill="none" stroke="#49312B" stroke-width="1.8" stroke-linecap="round"/><path d="M26.2 30.2c.5 2.4 2.1 3.6 3.2 2.7 1-.8-.1-2.5-3.2-2.7Z" fill="#77CFC1"/><path d="m37.2 10.4.8 2.2 2.2.8-2.2.8-.8 2.2-.8-2.2-2.2-.8 2.2-.8.8-2.2Z" fill="#FFF4A8"/><path d="M10 11.6c1.1-1.7 3.7-1.1 4 .9.3 2-1.8 3.6-3.5 5.1-1.9-1.2-4.1-2.5-4.1-4.5 0-2 2.5-2.9 3.6-1.5Z" fill="#F58A9D"/></svg>
